REM GENRE Techno
REM DATE 1995
REM COMMENT "DCue v1.2dev"
PERFORMER "Mate Galic"
TITLE "The Original DJ Collection Vol. 1"
FILE "r121788.wav" WAVE
	TRACK 01 AUDIO
		TITLE "Why"
		PERFORMER "Rob Acid"
		INDEX 01 00:00:00
	TRACK 02 AUDIO
		TITLE "Sülk"
		PERFORMER "Encephaloid Disturbance"
		INDEX 01 04:11:00
	TRACK 03 AUDIO
		TITLE "Alphawave (Plasticman Acid House Mix)"
		PERFORMER "System 7"
		INDEX 01 07:44:00
	TRACK 04 AUDIO
		TITLE "Be Yourself (Original Mix)"
		PERFORMER "Rotor Type"
		INDEX 01 17:09:00
	TRACK 05 AUDIO
		TITLE "Acid Vol. 3"
		PERFORMER "Kox Box"
		INDEX 01 22:03:00
	TRACK 06 AUDIO
		TITLE "Brainworm"
		PERFORMER "Aural Traxx Vol. 1"
		INDEX 01 29:26:00
	TRACK 07 AUDIO
		TITLE "Space Bar"
		PERFORMER "Black Labs"
		INDEX 01 36:59:00
	TRACK 08 AUDIO
		TITLE "Gate 41"
		PERFORMER "The Source Expierience"
		INDEX 01 42:57:00
	TRACK 09 AUDIO
		TITLE "Fading Away"
		PERFORMER "Random XS"
		INDEX 01 50:33:00
	TRACK 10 AUDIO
		TITLE "Absolutely Lovely Stuff"
		PERFORMER "Sunrise"
		INDEX 01 56:42:00
	TRACK 11 AUDIO
		TITLE "Funalogue"
		PERFORMER "Hardfloor"
		INDEX 01 65:10:00
	TRACK 12 AUDIO
		TITLE "Kraj"
		PERFORMER "Notzucht"
		INDEX 01 71:40:00
